<svg width="48" height="48" viewBox="0 0 48 48" fill="none" xmlns="http://www.w3.org/2000/svg">
<path d="M20.0007 21.333H10.6673C10.3137 21.333 9.97456 21.1925 9.72451 20.9425C9.47446 20.6924 9.33398 20.3533 9.33398 19.9997V10.6663C9.33398 10.3127 9.47446 9.97358 9.72451 9.72353C9.97456 9.47348 10.3137 9.33301 10.6673 9.33301H20.0007C20.3543 9.33301 20.6934 9.47348 20.9435 9.72353C21.1935 9.97358 21.334 10.3127 21.334 10.6663V19.9997C21.334 20.3533 21.1935 20.6924 20.9435 20.9425C20.6934 21.1925 20.3543 21.333 20.0007 21.333Z" fill="#FF5C00"/>
<path d="M20.0007 38.666H10.6673C10.3137 38.666 9.97456 38.5255 9.72451 38.2755C9.47446 38.0254 9.33398 37.6863 9.33398 37.3327V27.9993C9.33398 27.6457 9.47446 27.3066 9.72451 27.0565C9.97456 26.8065 10.3137 26.666 10.6673 26.666H20.0007C20.3543 26.666 20.6934 26.8065 20.9435 27.0565C21.1935 27.3066 21.334 27.6457 21.334 27.9993V37.3327C21.334 37.6863 21.1935 38.0254 20.9435 38.2755C20.6934 38.5255 20.3543 38.666 20.0007 38.666Z" fill="#FF5C00"/>
<path d="M25.334 10.666H38.6673V13.3327H25.334V10.666Z" fill="#FFC34F"/>
<path d="M38.6673 28H25.334V30.6667H38.6673V28Z" fill="#FFC34F"/>
<path d="M38.6673 34.666H25.334V37.3327H38.6673V34.666Z" fill="#FFC34F"/>
<path d="M38.6673 17.333H25.334V19.9997H38.6673V17.333Z" fill="#FFC34F"/>
</svg>
