<svg width="48" height="48" viewBox="0 0 48 48" fill="none" xmlns="http://www.w3.org/2000/svg">
<path d="M35.9993 40.0003H23.9993C23.6457 40.0003 23.3066 39.8599 23.0565 39.6098C22.8065 39.3598 22.666 39.0206 22.666 38.667V36.0003C22.666 35.6467 22.8065 35.3076 23.0565 35.0575C23.3066 34.8075 23.6457 34.667 23.9993 34.667H35.9993C36.353 34.667 36.6921 34.8075 36.9422 35.0575C37.1922 35.3076 37.3327 35.6467 37.3327 36.0003V38.667C37.3327 39.0206 37.1922 39.3598 36.9422 39.6098C36.6921 39.8599 36.353 40.0003 35.9993 40.0003Z" fill="#FFC34F"/>
<path d="M35.9993 8H11.9993C11.6457 8 11.3066 8.14047 11.0565 8.39052C10.8065 8.64057 10.666 8.97971 10.666 9.33333V12C10.666 12.3536 10.8065 12.6928 11.0565 12.9428C11.3066 13.1929 11.6457 13.3333 11.9993 13.3333H35.9993C36.353 13.3333 36.6921 13.1929 36.9422 12.9428C37.1922 12.6928 37.3327 12.3536 37.3327 12V9.33333C37.3327 8.97971 37.1922 8.64057 36.9422 8.39052C36.6921 8.14047 36.353 8 35.9993 8Z" fill="#FFC34F"/>
<path d="M35.9993 16H11.9993C11.6457 16 11.3066 16.1405 11.0565 16.3905C10.8065 16.6406 10.666 16.9797 10.666 17.3333V30.6667C10.666 31.0203 10.8065 31.3594 11.0565 31.6095C11.3066 31.8595 11.6457 32 11.9993 32H35.9993C36.353 32 36.6921 31.8595 36.9422 31.6095C37.1922 31.3594 37.3327 31.0203 37.3327 30.6667V17.3333C37.3327 16.9797 37.1922 16.6406 36.9422 16.3905C36.6921 16.1405 36.353 16 35.9993 16Z" fill="#FF5C00"/>
</svg>
