<svg width="48" height="48" viewBox="0 0 48 48" fill="none" xmlns="http://www.w3.org/2000/svg">
<path d="M14.6673 9.33301H10.6673C10.3137 9.33301 9.97456 9.47348 9.72451 9.72353C9.47446 9.97358 9.33398 10.3127 9.33398 10.6663V37.333C9.33398 37.6866 9.47446 38.0258 9.72451 38.2758C9.97456 38.5259 10.3137 38.6663 10.6673 38.6663H14.6673V9.33301Z" fill="#FFC34F"/>
<path d="M17.334 38.6663H30.6673V9.33301H17.334V38.6663ZM24.0007 33.333C23.647 33.333 23.3079 33.1925 23.0578 32.9425C22.8078 32.6924 22.6673 32.3533 22.6673 31.9997C22.6673 31.6461 22.8078 31.3069 23.0578 31.0569C23.3079 30.8068 23.647 30.6663 24.0007 30.6663C24.3543 30.6663 24.6934 30.8068 24.9435 31.0569C25.1935 31.3069 25.334 31.6461 25.334 31.9997C25.334 32.3533 25.1935 32.6924 24.9435 32.9425C24.6934 33.1925 24.3543 33.333 24.0007 33.333ZM24.0007 14.6663C24.3543 14.6663 24.6934 14.8068 24.9435 15.0569C25.1935 15.3069 25.334 15.6461 25.334 15.9997C25.334 16.3533 25.1935 16.6924 24.9435 16.9425C24.6934 17.1925 24.3543 17.333 24.0007 17.333C23.647 17.333 23.3079 17.1925 23.0578 16.9425C22.8078 16.6924 22.6673 16.3533 22.6673 15.9997C22.6673 15.6461 22.8078 15.3069 23.0578 15.0569C23.3079 14.8068 23.647 14.6663 24.0007 14.6663ZM24.0007 22.6663C24.3543 22.6663 24.6934 22.8068 24.9435 23.0569C25.1935 23.3069 25.334 23.6461 25.334 23.9997C25.334 24.3533 25.1935 24.6924 24.9435 24.9425C24.6934 25.1925 24.3543 25.333 24.0007 25.333C23.647 25.333 23.3079 25.1925 23.0578 24.9425C22.8078 24.6924 22.6673 24.3533 22.6673 23.9997C22.6673 23.6461 22.8078 23.3069 23.0578 23.0569C23.3079 22.8068 23.647 22.6663 24.0007 22.6663Z" fill="#FF5C00"/>
<path d="M37.334 9.33301H33.334V38.6663H37.334C37.6876 38.6663 38.0267 38.5259 38.2768 38.2758C38.5268 38.0258 38.6673 37.6866 38.6673 37.333V10.6663C38.6673 10.3127 38.5268 9.97358 38.2768 9.72353C38.0267 9.47348 37.6876 9.33301 37.334 9.33301Z" fill="#FFC34F"/>
</svg>
