<svg width="204" height="160" viewBox="0 0 204 160" fill="none" xmlns="http://www.w3.org/2000/svg">
<circle cx="142" cy="83" r="40" fill="#FFC34F" fill-opacity="0.52"/>
<g clip-path="url(#clip0)">
<path d="M118.304 83.2609H55.2609C53.4609 83.2609 52 81.8 52 80C52 78.2 53.4609 76.7391 55.2609 76.7391H118.304C120.104 76.7391 121.565 78.2 121.565 80C121.565 81.8 120.104 83.2609 118.304 83.2609Z" fill="black"/>
<path d="M100.913 100.652C100.078 100.652 99.2436 100.335 98.6083 99.6957C97.3345 98.422 97.3345 96.3569 98.6083 95.0823L113.695 79.996L98.6083 64.9089C97.3345 63.6351 97.3345 61.5692 98.6083 60.2954C99.8829 59.0216 101.948 59.0216 103.222 60.2954L120.613 77.6873C121.887 78.961 121.887 81.0261 120.613 82.2999L103.222 99.691C102.582 100.335 101.748 100.652 100.913 100.652Z" fill="black"/>
<path d="M104.174 127.826C84.3866 127.826 66.9175 115.922 59.661 97.4954C59.0002 95.8259 59.8258 93.9304 61.5 93.2696C63.1694 92.6176 65.0698 93.4304 65.7305 95.1134C71.9959 111.022 87.087 121.305 104.174 121.305C126.947 121.305 145.479 102.774 145.479 80.0001C145.479 57.2265 126.947 38.6954 104.174 38.6954C87.087 38.6954 71.9959 48.978 65.7305 64.8867C65.065 66.5697 63.1694 67.3825 61.5 66.7305C59.8258 66.0697 59.0002 64.1742 59.661 62.5047C66.9175 44.0779 84.3866 32.1737 104.174 32.1737C130.544 32.1737 152 53.6305 152 80.0001C152 106.37 130.544 127.826 104.174 127.826Z" fill="black"/>
</g>
<defs>
<clipPath id="clip0">
<rect width="100" height="100" fill="white" transform="translate(52 30)"/>
</clipPath>
</defs>
</svg>
