<svg width="150" height="17" viewBox="0 0 150 17" fill="none" xmlns="http://www.w3.org/2000/svg">
<path d="M6.65961 0C3.49167 0 0.624338 1.73427 0.624338 4.80972C0.624338 8.00078 2.75171 9.13383 6.38212 10.0357C8.34763 10.5213 8.94884 11.2381 8.94884 12.0705C8.94884 12.9492 8.07015 13.5504 6.91396 13.5504C5.66529 13.5504 4.43974 12.903 4.16225 11.3999H0C0.25436 14.9841 2.98295 16.6028 7.02958 16.6028C10.2438 16.6028 13.2961 14.9841 13.2961 11.7931C13.2961 9.34195 11.8624 7.58455 8.34763 6.7521C5.71154 6.12776 4.97158 5.50342 4.97158 4.48598C4.97158 3.51479 5.61904 3.05232 6.56711 3.05232C7.9314 3.05232 8.62511 3.93102 8.8101 5.24906H12.9724C12.6255 2.28924 10.8681 0 6.65961 0Z" fill="black"/>
<path d="M19.932 6.61336H22.6606V4.02351H19.932V0.832451H15.7698V4.02351H13.8043V6.61336H15.7698V11.7699C15.7698 12.4636 15.7698 13.0417 15.816 13.7586C15.9548 15.6547 16.8797 16.6028 19.9551 16.6028C20.8338 16.6028 21.5969 16.5334 22.4062 16.3947V13.8048C20.4407 13.8973 20.0476 13.6198 19.9551 12.3711C19.932 12.0474 19.932 11.5849 19.932 11.1687V6.61336Z" fill="black"/>
<path d="M31.6647 3.60729C30.8785 3.60729 29.9073 3.95414 29.2368 4.6941L28.3581 6.42837V3.93102H24.1958V16.279H28.3581V11.7468C28.3581 8.0239 29.4911 6.86772 32.6128 7.07583V3.67666C32.3122 3.63041 32.0578 3.60729 31.6647 3.60729Z" fill="black"/>
<path d="M45.9996 9.94316C45.9996 6.7521 43.9184 3.60729 39.8024 3.60729C35.6864 3.60729 33.2122 6.54399 33.2122 10.1513C33.2122 14.4985 36.0333 16.6028 39.5712 16.6028C42.7391 16.6028 45.0515 15.0304 45.7683 12.2324H41.6755C41.5136 13.1805 40.7968 13.7817 39.6175 13.7817C38.4382 13.7817 37.5363 13.2036 37.3282 11.1456H45.9302C45.9765 10.7294 45.9996 10.3131 45.9996 9.94316ZM39.5943 6.42837C40.7043 6.42837 41.4211 7.1452 41.6523 8.60199H37.467C37.7444 7.07583 38.5075 6.42837 39.5943 6.42837Z" fill="black"/>
<path d="M55.0313 16.279H59.1011C58.9161 14.9147 58.8699 14.0823 58.8699 13.1573V9.6888C58.8699 8.92572 58.8467 8.20889 58.8005 7.58455C58.6155 5.34156 57.2743 3.60729 53.3664 3.60729C50.2447 3.60729 47.678 5.24906 47.6549 8.13952L51.5859 8.11639C51.6553 7.05271 52.2103 6.42837 53.1814 6.42837C54.0833 6.42837 54.592 6.98334 54.6614 7.60767C54.7076 8.00078 54.7076 8.25514 54.7076 8.5095V8.69448H53.9214C49.736 8.69448 47.2387 10.3131 47.2387 12.9492C47.2387 15.331 49.1579 16.6028 51.1928 16.6028C52.3259 16.6028 53.3664 16.3253 54.2451 15.7703L54.7539 14.4754L55.0313 16.279ZM52.904 13.7817C52.0715 13.7817 51.4934 13.3655 51.4934 12.6255C51.4934 11.4 52.8346 10.9144 54.7076 11.0531V11.8624C54.7076 13.1573 53.7364 13.7817 52.904 13.7817Z" fill="black"/>
<path d="M81.2284 6.72898C80.9509 5.04095 79.5635 3.60729 77.0893 3.60729C75.9562 3.60729 75.1932 3.86165 74.4301 4.32412L73.1352 6.01214C72.6033 4.64785 71.2853 3.60729 69.181 3.60729C68.048 3.60729 67.2849 3.86165 66.5218 4.32412L65.5275 5.91965V3.93102H61.3652V16.279H65.5275V9.75817C65.5275 7.65392 66.0593 6.42837 67.4005 6.42837C68.4873 6.42837 69.0423 7.12208 69.181 8.30138C69.2504 8.92572 69.2735 9.59631 69.2735 9.98941V16.279H73.4358V9.75817C73.4358 7.65392 73.9676 6.42837 75.3088 6.42837C76.3956 6.42837 76.9505 7.12208 77.0893 8.30138C77.1587 8.92572 77.1818 9.59631 77.1818 9.98941V16.279H81.344V9.06446C81.344 8.07015 81.3209 7.35331 81.2284 6.72898Z" fill="black"/>
<path d="M112.124 12.1394L112.725 16.2785H117.257L114.459 0.323242H109.071L100.654 16.2785H105.071L107.106 12.1394H112.124ZM111.661 8.90211H108.678L110.991 4.18489L111.661 8.90211Z" fill="black"/>
<path d="M133.791 3.93053C133.791 1.66441 132.126 0.670098 130.115 0.43886C129.282 0.346367 128.635 0.323242 127.64 0.323242H121.304L118.483 16.2785H122.646L123.709 10.2202H124.657C125.12 10.2202 125.49 10.2202 125.952 10.2433C126.923 10.3126 127.432 11.2145 127.432 12.7406C127.432 14.5674 127.478 15.423 127.594 16.2785H132.126C131.779 15.5155 131.594 14.5211 131.594 13.2031C131.594 10.6826 131.132 9.31833 129.698 8.694C132.381 8.00029 133.791 6.35851 133.791 3.93053ZM124.241 7.21408L124.889 3.56055H126.507C126.947 3.56055 127.317 3.56055 127.617 3.58367C128.542 3.65305 129.259 3.97678 129.259 5.01734C129.259 6.63599 128.103 7.09847 126.877 7.19096C126.577 7.21408 126.207 7.21408 125.767 7.21408H124.241Z" fill="black"/>
<path d="M149.399 3.56055L150.001 0.323242H135.479L134.878 3.56055H140.081L137.838 16.2785H142L144.243 3.56055H149.399Z" fill="black"/>
<ellipse cx="91.9293" cy="9.20466" rx="6.99959" ry="6.99958" fill="#EE0000"/>
</svg>
