<svg width="204" height="160" viewBox="0 0 204 160" fill="none" xmlns="http://www.w3.org/2000/svg">
<circle cx="126" cy="80" r="40" fill="#FFC34F" fill-opacity="0.52"/>
<path d="M139.678 20H64.322C49.808 20 38 31.808 38 46.322C38 60.836 49.808 72.644 64.322 72.644H83.4878V93.9098L82.552 93.1247C77.9262 89.243 70.6877 89.5585 66.4175 93.8292C61.9425 98.3042 62.2355 105.416 67.1017 109.499L83.4875 123.249V136.5C83.4875 138.571 85.1665 140.25 87.2375 140.25H132.238C134.309 140.25 135.988 138.571 135.988 136.5V94.361C135.988 88.697 131.749 83.8975 126.128 83.1973L105.988 80.688V72.6435H139.678C154.192 72.6435 166 60.8355 166 46.3215C166 31.8075 154.192 20 139.678 20ZM90.9875 132.75V125.25H128.488V132.75H90.9875ZM125.201 90.6397C127.075 90.8732 128.488 92.473 128.488 94.361V117.75H88.6025L71.9225 103.754C70.442 102.512 70.3522 100.501 71.7207 99.1322C73.2577 97.5955 76.0662 97.473 77.7313 98.87L84.8273 104.824C87.2613 106.866 90.9878 105.134 90.9878 101.951V54C90.9878 51.9323 92.67 50.25 94.7378 50.25C96.8055 50.25 98.4878 51.9323 98.4878 54V84C98.4878 85.8917 99.897 87.4873 101.774 87.7213L125.201 90.6397ZM139.678 65.1437H105.988V54C105.988 47.7967 100.941 42.75 94.7375 42.75C88.5342 42.75 83.4875 47.7967 83.4875 54V65.1437H64.3218C53.9435 65.1437 45.5 56.7002 45.5 46.322C45.5 35.9438 53.9435 27.5 64.322 27.5H139.678C150.057 27.5 158.5 35.9435 158.5 46.322C158.5 56.7005 150.057 65.1437 139.678 65.1437Z" fill="black"/>
<path d="M136.823 36.0984L124.475 48.4467L119.626 43.5984C118.162 42.1339 115.788 42.1339 114.323 43.5984C112.859 45.0629 112.859 47.4372 114.323 48.9017L121.823 56.4017C123.287 57.8662 125.662 57.8664 127.126 56.4017L142.126 41.4017C143.591 39.9372 143.591 37.5629 142.126 36.0984C140.662 34.6337 138.288 34.6337 136.823 36.0984Z" fill="black"/>
</svg>
