<svg width="204" height="161" viewBox="0 0 204 161" fill="none" xmlns="http://www.w3.org/2000/svg">
<circle cx="132" cy="80.5" r="40" fill="#FFC34F" fill-opacity="0.52"/>
<g clip-path="url(#clip0)">
<path d="M77.1514 98.6676C81.2049 94.6141 81.2049 88.0174 77.1514 83.9639C75.1871 82.0007 72.5766 80.9187 69.7995 80.9187C68.1942 80.9187 66.6454 81.2819 65.2451 81.9665C60.3072 74.902 57.7063 66.6348 57.7063 57.9393C57.7063 35.6851 75.091 17.2494 97.2832 15.9677C98.7924 15.8801 99.9439 14.5866 99.8574 13.0784C99.7698 11.5692 98.4763 10.4209 96.9681 10.5043C71.8834 11.9537 52.2344 32.7894 52.2344 57.9393C52.2344 67.9731 55.3009 77.5039 61.1147 85.5992C58.4583 89.6324 58.9026 95.1225 62.4477 98.6676C64.412 100.631 67.0224 101.713 69.7995 101.713C72.5766 101.713 75.1871 100.631 77.1514 98.6676ZM66.3164 87.8337C67.2766 86.8734 68.5381 86.3928 69.7995 86.3928C71.0599 86.3928 72.3214 86.8734 73.2816 87.8337C75.2021 89.7531 75.2021 92.8784 73.2816 94.7978C71.3611 96.7183 68.2369 96.7183 66.3164 94.7978C64.397 92.8784 64.397 89.7541 66.3164 87.8337Z" fill="black"/>
<path d="M141.934 105.292C140.204 105.292 138.579 105.743 137.168 106.533C135.917 102.567 132.204 99.6834 127.83 99.6834C125.063 99.6834 122.56 100.838 120.779 102.69C120.284 102.177 119.734 101.719 119.139 101.323C125.445 98.4999 131.12 94.3065 135.712 88.9947C143.161 80.375 147.264 69.3457 147.264 57.9393C147.264 47.9108 144.197 38.3746 138.384 30.2783C141.041 26.2451 140.596 20.7561 137.05 17.2099C132.997 13.1564 126.401 13.1564 122.347 17.2099C118.293 21.2634 118.293 27.8601 122.347 31.9136C124.374 33.9409 127.036 34.9545 129.698 34.9545C131.259 34.9545 132.817 34.6031 134.25 33.9067C139.19 40.9733 141.792 49.247 141.792 57.9393C141.792 77.7315 128.356 94.4613 109.411 98.8684V84.1412C120.261 80.1358 127.673 69.648 127.673 57.9393C127.673 42.5424 115.146 30.0156 99.7485 30.0156C84.3516 30.0156 71.8248 42.5413 71.8248 57.9393C71.8248 64.0158 73.7442 69.7943 77.3736 74.6478C80.5395 78.8808 84.9199 82.1684 89.8343 84.044V124.29L86.3971 118.651C83.5089 113.91 77.4794 112.372 72.6718 115.146C68.0992 117.787 66.3154 123.58 68.6236 128.359L78.8295 148.977C79.3069 149.941 80.2768 150.5 81.284 150.5C81.692 150.5 82.1054 150.409 82.4952 150.216C83.8496 149.545 84.404 147.903 83.7343 146.55L73.5391 125.956C72.4827 123.767 73.303 121.101 75.4083 119.886C77.5841 118.63 80.4178 119.353 81.7251 121.499L90.2337 135.46C90.8725 136.507 92.1296 137.001 93.3099 136.67C94.4902 136.339 95.3062 135.262 95.3062 134.035V71.2598C95.3062 68.88 97.2427 66.9446 99.6225 66.9446C102.002 66.9446 103.939 68.88 103.939 71.2598V82.0819C103.938 82.1011 103.939 82.1203 103.939 82.1406V123.222C103.939 124.734 105.163 125.958 106.674 125.958C108.186 125.958 109.411 124.734 109.411 123.222V109.472C109.411 107.092 111.346 105.155 113.726 105.155C116.106 105.155 118.042 107.092 118.042 109.472V124.218C118.042 125.729 119.267 126.954 120.778 126.954C122.289 126.954 123.514 125.729 123.514 124.218V109.472C123.514 107.092 125.451 105.155 127.83 105.155C130.21 105.155 132.146 107.092 132.146 109.472V124.403C132.146 125.914 133.371 127.139 134.882 127.139C136.393 127.139 137.617 125.914 137.617 124.403V115.08C137.617 112.7 139.554 110.764 141.934 110.764C144.313 110.764 146.25 112.7 146.25 115.08V147.762C146.25 149.274 147.474 150.499 148.985 150.499C150.497 150.499 151.722 149.274 151.722 147.762V115.08C151.722 109.683 147.331 105.292 141.934 105.292ZM126.216 28.0449C124.296 26.1244 124.296 23.0002 126.216 21.0797C127.177 20.1195 128.437 19.6399 129.698 19.6399C130.96 19.6399 132.221 20.1195 133.182 21.0797C135.101 23.0002 135.101 26.1244 133.182 28.0449C131.261 29.9643 128.136 29.9643 126.216 28.0449ZM77.2967 57.9393C77.2967 45.5588 87.3691 35.4864 99.7496 35.4864C112.129 35.4864 122.201 45.5588 122.201 57.9393C122.201 66.6572 117.093 74.5346 109.411 78.21V71.2598C109.411 69.7238 109.054 68.269 108.419 66.9734C110.846 64.6342 112.281 61.3733 112.281 57.9393C112.281 51.0286 106.659 45.4071 99.7496 45.4071C92.8389 45.4071 87.2174 51.0286 87.2174 57.9393C87.2174 61.2729 88.575 64.4762 90.9088 66.8111C90.2241 68.1462 89.8343 69.6586 89.8343 71.2598V78.0946C82.2154 74.3712 77.2967 66.6498 77.2967 57.9393ZM94.6579 62.8291C93.3964 61.5239 92.6893 59.7946 92.6893 57.9393C92.6893 54.046 95.8563 50.879 99.7485 50.879C103.642 50.879 106.809 54.046 106.809 57.9393C106.809 59.8213 106.044 61.6136 104.743 62.9231C103.252 62.0035 101.498 61.4726 99.6225 61.4726C97.811 61.4726 96.1148 61.9682 94.6579 62.8291Z" fill="black"/>
<path d="M109.437 16.9472C110.157 16.9472 110.863 16.6545 111.372 16.145C111.881 15.6366 112.174 14.9306 112.174 14.2107C112.174 13.4918 111.881 12.7858 111.372 12.2763C110.863 11.7679 110.157 11.4752 109.437 11.4752C108.719 11.4752 108.012 11.7679 107.504 12.2763C106.995 12.7858 106.702 13.4918 106.702 14.2107C106.702 14.9306 106.995 15.6366 107.504 16.145C108.012 16.6545 108.719 16.9472 109.437 16.9472Z" fill="black"/>
</g>
<defs>
<clipPath id="clip0">
<rect width="140" height="140" fill="white" transform="translate(32 10.5)"/>
</clipPath>
</defs>
</svg>
