<svg width="400" height="347" viewBox="0 0 400 347" fill="none" xmlns="http://www.w3.org/2000/svg">
<path fill-rule="evenodd" clip-rule="evenodd" d="M207.39 21.365C205.628 25.6585 203.868 29.9526 202.106 34.2463C200.976 36.9977 199.848 39.7487 198.719 42.5001C198.318 43.4757 198.096 44.4763 197.322 45.1536C195.497 46.7482 192.221 47.763 190.028 48.8848C188.559 49.6364 187.089 50.3881 185.619 51.1398C184.862 51.5277 183.182 52.0147 182.651 52.6584C182.067 53.3676 182.343 54.6702 182.343 55.651V64.1188V80.074C189.933 79.2002 197.523 78.3269 205.113 77.4531C195.001 88.1974 184.889 98.9412 174.777 109.685C172.285 112.333 169.259 114.882 167.402 117.962C163.45 124.52 159.587 131.125 155.681 137.706C152.045 143.831 148.408 149.956 144.772 156.082L177.487 154.799C185.956 154.468 194.658 154.967 202.818 152.756C209.546 150.934 216.273 149.112 223 147.29C223.895 147.048 226.682 146.773 227.316 146.11C227.91 145.489 227.898 143.142 228.065 142.348C231.241 127.319 235.283 110.758 244.551 97.8215C251.195 88.5481 260.161 80.4289 268.372 72.3422C271.576 69.1861 274.837 66.0677 277.928 62.8156C278.72 61.9827 279.864 61.0376 280.387 60.0259C280.726 59.3722 281.198 58.1267 280.988 57.5465C280.897 57.2949 278.784 56.3922 278.482 56.2129C276.341 54.946 274.218 53.6523 272.092 52.3649C266.116 48.7469 260.145 45.12 254.135 41.5503C249.45 38.7669 244.777 35.8157 239.835 33.4238C234.712 30.9444 229.07 29.1994 223.699 27.2405C218.272 25.2606 212.834 23.3034 207.39 21.365Z" fill="#FF4D00"/>
<path fill-rule="evenodd" clip-rule="evenodd" d="M391.597 250.742C388.991 253.003 384.245 256.038 380.493 254.658C378.609 253.965 377 252.443 375.284 251.462C373.267 250.309 371.372 249.155 369.662 247.618C366.252 244.551 363.67 240.069 359.642 237.668C358.288 236.861 355.645 236.688 354.706 235.399C354.285 234.821 354.246 233.944 354.324 233.275C354.492 231.836 355.336 231.921 353.926 230.864H356.117C356.159 230.084 355.314 230.02 354.684 230.121C354.977 228.885 355.275 224.051 352.83 226.242C350.71 228.141 351.77 231.292 350.269 233.349C349.12 234.924 346.07 233.648 345.658 231.915C345.473 231.137 346.405 229.921 346.516 229.158C346.759 227.466 345.938 226.002 344.746 224.72C342.131 226.325 343.614 229.646 342.123 231.754C340.775 233.662 337.771 232.771 335.718 232.436C333.257 232.033 330.473 232.441 328.118 231.906C324.562 231.097 325.89 227.253 325.539 224.771C325.161 222.113 322.244 218.424 323.12 215.742C324.062 212.863 329.566 212.241 332.197 211.542C338.21 209.945 346.787 209.637 351.258 205.166C354.813 208.818 357.673 212.999 361.402 216.514C365.43 220.31 369.733 223.816 373.6 227.765C377.624 231.876 381.779 235.908 385.657 240.137C387.349 241.983 388.835 243.971 390.586 245.772C392.142 247.373 393.783 248.846 391.597 250.742ZM212.872 179.728C214.719 178.823 214.954 179.391 214.954 181.254C214.422 180.359 213.895 180.12 212.872 179.728ZM197.206 215.953V212.668C198.987 212.625 197.892 215.435 197.206 215.953ZM196.77 220.845C196.77 219.39 196.727 218.005 197.183 216.59C197.422 218.132 197.878 219.466 196.77 220.845ZM204.429 320.767C206.065 320.908 208.586 319.87 209.962 321.052C211.376 322.266 211.262 325.801 211.597 327.442C212.15 330.154 212.64 332.874 213.107 335.599C213.412 337.386 213.79 339.2 211.597 339.883C208.356 340.893 203.724 339.452 200.346 339.321C193.672 339.062 187.001 338.703 180.321 338.578C173.847 338.458 167.358 338.553 160.913 339.173C158.002 339.453 155.155 339.948 152.274 340.395C150.755 340.632 146.685 341.62 145.313 340.441C142.732 338.222 147.023 333.04 148.869 331.576C152.294 328.861 157.165 326.902 161.46 325.723C163.756 325.092 167.582 323.322 169.39 325.302C170.777 326.82 170.722 328.848 172.71 329.998C177.316 332.664 174.621 325.017 171.743 324.075C173.675 319.91 177.359 325.791 178.887 327.204C179.431 327.706 181.199 329.364 181.967 328.53C182.542 327.907 181.393 325.671 181.181 325.063C180.857 324.14 180.039 322.735 180.274 321.733C180.7 319.921 183.461 319.427 185.115 319.276C187.679 319.042 190.195 319.791 192.73 320.041C196.618 320.424 200.536 320.43 204.429 320.767ZM178.68 150.032C173.618 150.403 168.524 149.691 163.473 150.274C158.695 150.826 154.192 152.442 149.688 153.926C156.384 139.463 165.048 126.297 175.609 113.963C180.867 107.82 186.524 101.72 192.206 95.9061C194.85 93.2013 197.585 90.5861 200.315 87.9573C202.75 85.6121 204.495 81.6293 207.418 79.878C209.912 78.383 214.271 79.4492 217.036 79.542C220.16 79.6468 223.963 79.9084 227.01 78.9507C229.218 78.2567 229.826 76.4047 227.061 76.3434C223.801 76.2705 220.595 76.5835 217.292 76.302C208.734 75.5739 200.485 74.3771 191.858 75.056C189.882 75.2111 187.28 75.9864 185.341 75.7537C183.946 75.5854 184.863 76.2312 183.894 75.2006C183.522 74.8064 183.075 73.8797 182.965 73.356C182.347 70.4148 184.101 66.2118 184.521 63.2507C184.909 60.5102 184.565 57.4982 185.292 54.8296C185.953 52.401 187.969 52.0771 190.453 51.8176C197.245 51.1073 204.178 50.7294 211.002 50.1942C226.574 48.9728 242.641 47.1303 258.108 50.1486C263.693 51.2384 270.503 52.9236 275.492 55.6222C277.052 56.4656 278.626 57.4589 278.059 59.2066C277.47 61.0208 274.584 62.9372 273.155 64.1324C262.59 72.9639 252.386 81.9721 244.964 93.304C235.5 107.754 230.069 123.361 226.882 139.92C226.197 143.482 225.56 145.347 221.58 146.372C217.307 147.473 213.183 148.189 208.752 148.524C198.737 149.281 188.691 149.297 178.68 150.032ZM182.073 54.3363C181.305 59.5966 180.266 64.8453 180.164 70.1469C180.125 72.1493 179.919 73.1526 177.607 73.5992C174.881 74.1255 172.109 74.5176 169.37 75.0638C156.153 77.7015 143.185 80.941 130.254 84.5873C117.686 88.1319 105.326 92.1194 92.4757 94.745C86.9483 95.8747 80.4804 96.6358 75.4459 99.1367C70.03 101.828 70.7427 106.24 70.2565 111.086C69.607 117.561 67.5218 123.83 66.7886 130.302C66.438 133.395 66.1186 136.506 66.1716 139.618C66.2165 142.271 66.6292 145.205 64.6926 147.437C60.8075 142.654 58.9659 136.639 58.2003 130.777C57.828 127.927 57.9754 125.055 57.869 122.192C57.783 119.887 57.8388 116.221 56.2084 114.296C52.6643 110.113 48.055 126.877 47.6167 128.667C46.8795 131.68 46.2715 134.718 45.5372 137.732C45.2116 139.067 44.7937 143.923 42.8503 144.407C38.8228 145.41 39.7069 134.989 39.6431 133.402C39.5156 130.199 39.4291 126.993 39.5105 123.787C39.5697 121.473 40.0558 118.963 39.7672 116.648C39.0585 110.964 35.5877 116.952 34.612 119.068C32.1466 124.409 31.0314 130.126 28.8204 135.552C28.4527 136.455 27.5886 139.494 26.2195 139.55C24.6962 139.613 24.7081 136.474 24.621 135.557C24.1155 130.243 22.4083 124.965 22.9235 119.595C23.4438 114.173 25.5079 108.599 28.4288 103.883C34.6041 93.9116 45.7558 88.1864 56.4373 82.9712C68.6615 77.0039 81.5671 72.2893 94.7482 68.4486C110.601 63.8294 126.878 60.0919 143.253 57.4322C151.584 56.0793 160.044 55.1116 168.46 54.3358C171.418 54.0632 174.377 53.9039 177.297 53.3854C178.399 53.1894 182.375 52.2579 182.073 54.3363ZM190.588 37.3133C186.411 37.3437 182.145 35.4791 178.076 34.7086C173.231 33.7902 168.5 32.4614 163.665 31.5026C154.195 29.6255 144.72 27.795 135.259 25.8765C131.152 25.0436 127.025 24.3186 122.934 23.424C118.557 22.4668 113.828 21.3996 109.348 22.4306C102.557 23.9938 99.6888 30.8348 97.1954 36.1737C95.4341 39.9447 94.0543 44.1482 91.3076 47.4296C90.3296 48.5996 88.9395 49.995 87.1663 49.616C83.872 48.9125 84.3951 44.8983 84.8147 42.6794C85.4226 39.4593 86.2839 36.277 86.9733 33.0715C87.2511 31.7778 89.404 23.3108 85.5604 24.6216C82.709 25.594 81.2005 31.9985 80.1212 34.2861C79.3191 35.986 78.4692 37.675 77.5692 39.333C76.3681 41.5445 72.9411 48.934 69.1471 47.9811C63.7175 46.6171 68.9256 33.4731 69.8507 30.7027C70.3584 29.182 75.8774 17.6495 71.2192 18.592C69.2353 18.9941 67.3027 22.3871 66.2911 23.7935C64.4974 26.288 62.7094 28.8004 61.0209 31.3564C59.2841 33.9852 58.3972 36.9773 56.6747 39.5678C55.7684 40.9312 53.9189 42.7481 52.1132 41.4858C49.2983 39.5196 50.9667 32.68 51.4597 30.0936C52.3768 25.2852 54.655 20.3559 57.7807 16.425C62.4777 10.5184 71.3404 8.60986 78.7931 7.46241C88.4129 5.98105 98.1666 6.38625 107.827 7.2627C118.691 8.2487 129.39 9.30441 140.098 11.3204C150.891 13.3522 161.689 15.3677 172.316 18.0547C177.322 19.3206 182.399 20.4429 187.334 21.929C192.58 23.5084 197.7 25.4739 203.093 26.6119C201.196 30.9706 199.299 35.3292 197.402 39.6884C195.587 38.0346 193.109 37.2944 190.588 37.3133ZM283.561 49.324C285.224 48.4864 287.061 48.0911 287.668 46.2397C288.205 44.6037 287.288 42.7502 286.85 41.1797C285.624 36.7828 285.301 32.2281 286.386 27.7793C287.423 29.2371 291.305 34.8443 293.667 31.4497C295.091 29.4022 291.275 26.4568 290.16 25.0174C292.605 23.6284 296.096 19.9004 298.913 22.1486C300.733 23.6022 301.504 25.0016 303.957 25.7082C306.935 26.5663 309.738 26.3698 312.779 26.1328C314.908 25.9672 315.421 25.7056 316.253 27.2153C316.906 28.4021 317.243 29.8708 317.625 31.1451C318.376 33.6576 320.116 38.608 318.055 40.9616C316.251 43.0233 309.245 41.2557 308.272 43.917C307.742 45.3685 310.274 45.4204 311.242 46.1385C312.44 47.0276 313.431 48.4423 314.082 49.7062C314.564 50.6408 315.298 52.1851 314.477 53.1407C313.343 54.4627 311.241 53.4599 310.327 52.499C309.113 51.2226 308.719 49.4776 307.707 48.0875C305.848 45.5368 305.737 47.5659 305.231 49.3974C304.706 51.3002 303.462 51.1692 301.558 51.4134C298.217 51.8428 294.841 52.4482 291.589 53.2727C289.921 53.6952 288.306 54.2336 286.719 54.8626C285.696 55.2673 283.923 56.4934 282.813 56.5049C280.756 56.5264 279.33 53.3587 278.268 52.0372C280.031 51.1309 281.789 50.2162 283.561 49.324ZM394.013 243.286C388.876 237.608 384.427 231.439 379.358 225.712C374.36 220.062 368.577 215.123 362.967 210.006C360.32 207.592 357.783 204.942 354.86 202.803C352.68 201.206 351.003 201.181 348.38 201.888C340.928 203.898 333.341 206.317 326.289 209.316C319.723 212.109 313.741 215.695 306.62 217.252C299.351 218.842 291.793 219.353 284.343 218.959C276.702 218.554 269.494 217.09 262.227 214.939C255.345 212.9 248.169 211.121 242.283 207.081C236.112 202.847 231.344 196.757 226.927 191.028C224.69 188.128 222.47 185.083 220.964 181.796C219.656 178.944 218.801 175.578 216.455 173.253C215.879 174.004 215.163 174.648 214.871 175.531C214.738 175.932 215.522 175.919 215.442 176.238C215.29 176.838 214.422 177.45 213.918 177.777C212.106 178.951 212.095 178.016 212.57 180.212C212.847 181.492 212.323 184.38 210.057 183.436C210.891 184.356 209.565 185.517 209.132 186.275C208.834 185.96 208.464 185.851 208.021 185.946C208.85 187.466 208.36 187.506 207.557 188.713C207.41 188.934 206.89 190.089 206.965 189.991C206.144 191.068 205.196 191.339 204.717 192.68C204.324 193.781 204.424 194.992 203.986 196.092C203.456 195.417 202.926 194.743 202.396 194.068C202.504 194.599 202.721 195.384 202.972 195.865C203.13 196.166 203.809 196.869 203.8 197.033C203.763 197.646 202.932 197.499 202.695 198.028C202.25 199.02 202.893 199.166 202.651 200.134C202.373 201.246 201.627 200.801 201.272 201.748C201.205 201.928 201.729 202.636 201.646 203.024C201.529 203.572 200.989 203.879 200.799 204.366C200.314 205.606 200.49 206.514 199.817 207.704C199.556 208.165 199.176 208.472 198.993 208.996C198.831 209.458 199.178 210.439 198.867 210.852C197.366 212.844 197.577 209.414 197.691 208.563C198.646 201.42 201.713 194.048 204.519 187.371C205.914 184.054 207.271 180.633 209.02 177.456C209.724 176.176 210.536 174.856 211.699 173.877C213.17 172.639 215.257 172.144 216.589 170.761C216.379 170.979 218.033 169.537 217.768 170.011C218.005 169.588 217.592 169.014 217.739 168.604C217.921 168.095 218.267 167.988 218.652 167.543C219.343 166.743 220.165 166.345 219.079 165.326C220.691 164.997 221.462 164.516 221.784 162.926C222.019 161.763 221.544 161.839 222.373 161.063C223.205 160.284 223.626 160.893 224.15 159.544C224.777 157.93 225.193 155.735 225.569 154.046C225.897 152.572 225.101 150.403 226.451 149.362C228.16 148.044 229.69 148.602 229.383 145.95C229.085 143.366 229.957 141.8 230.833 139.354C232.583 134.471 233.259 129.316 234.792 124.375C238.066 113.83 243.849 104.323 250.068 95.0412C255.814 86.4644 263.847 79.1572 271.604 72.12C273.728 70.1925 275.829 68.2373 277.736 66.1243C279.379 64.3048 280.129 61.8275 281.708 60.1003C282.667 59.0514 284.453 58.6027 285.793 58.0465C288.026 57.1187 290.688 55.9084 293.209 56.096C292.208 59.206 291.881 62.8403 294.837 65.1724C298.424 68.0014 301.675 65.0623 304.963 63.4494C310.957 60.5092 319.528 63.2082 324.754 58.8014C325.999 57.7519 326.346 56.0751 327.639 55.0948C328.589 54.3762 329.94 54.1937 331.009 53.658C334.256 52.0304 335.832 49.0509 334.568 45.7595C333.412 42.7507 331.617 41.707 335.614 40.1822C338.859 38.9451 340.092 37.0811 338.624 33.7624C337.223 30.5984 334.658 30.2341 332.23 28.1635C329.879 26.158 332.58 23.8239 334.342 22.3185C336.612 20.3763 337.047 18.6261 334.414 16.6064C331.656 14.4918 327.719 14.5657 324.505 15.6115C320.87 16.7935 318.475 18.7587 316.937 21.9431C315.371 25.1851 311.488 24.2804 308.343 23.3768C305.336 22.5129 304.553 20.6489 302.578 18.6418C300.382 16.4093 295.906 18.3184 293.316 19.3385C286.936 21.8493 280.595 25.812 280.342 32.8315C280.191 37.0171 282.113 40.5748 283.113 44.5036C284.027 48.0964 277.759 47.8133 276.674 51.2887C265.094 45.6442 252.199 43.917 239.255 43.5328C225.498 43.1239 211.543 42.7963 197.903 44.7945C201.069 39.7151 202.741 34.1451 205.496 28.9268C206.289 27.4244 206.63 27.5529 208.38 28.0068C211.742 28.8785 215.078 29.8541 218.433 30.752C230.688 34.0324 242.702 37.9848 254.551 42.3135C255.703 42.7344 258.274 43.9029 259.284 42.6322C260.448 41.1671 257.753 39.3608 256.663 38.6237C251.892 35.4005 245.979 33.4442 240.635 31.1829C228.952 26.2403 216.016 23.8942 203.826 20.2233C177.509 12.297 150.284 6.27722 122.936 2.30124C116.262 1.33097 109.517 1.18891 102.814 0.468677C96.8766 -0.169261 90.9285 -0.154584 84.9917 0.504322C74.0267 1.72201 61.3147 4.34925 55.1217 13.5918C49.5311 21.9369 45.7991 31.3192 47.2256 41.218C47.6543 44.1912 49.0216 47.7122 53.0058 46.9458C55.7696 46.4143 57.2371 44.252 58.5202 42.1416C60.4591 38.9535 62.3741 35.7653 64.4752 32.6627C65.2545 37.3148 62.4224 41.8894 62.8676 46.6286C63.1704 49.8445 65.1002 54.9255 69.6343 54.015C75.8489 52.7674 78.4066 43.8274 81.3946 39.5385C81.546 42.8419 80.2885 46.0976 80.6734 49.4084C81.053 52.6788 83.8282 55.7663 87.7258 55.3181C91.4021 54.8956 93.7913 51.2688 95.3527 48.5383C97.5256 44.7384 99.0865 40.6644 101.209 36.8394C103.198 33.254 105.554 28.9855 110.303 28.3119C114.541 27.7101 119.398 29.1029 123.584 29.6774C135.196 31.2709 146.574 33.9841 158.06 36.1763C170.374 38.5262 182.98 39.9536 194.915 43.7456C190.718 49.0053 179.736 47.8689 173.485 48.4334C164.037 49.2868 154.469 49.9289 145.075 51.188C135.797 52.4314 126.714 54.6388 117.508 56.2412C108.351 57.8353 99.21 59.432 90.3495 62.1504C73.8986 67.1978 57.1733 73.5856 42.679 82.3925C35.935 86.4906 29.9441 91.1743 25.7783 97.6428C21.5858 104.152 19.5712 111.512 18.8027 118.999C18.3245 123.661 19.1368 127.696 20.1177 132.233C20.8281 135.518 21.0581 141.018 23.9186 143.424C29.3783 148.015 33.9113 129.392 34.9194 127.143C35.6452 130.829 34.4583 151.595 43.2186 149.906C47.1283 149.153 48.0152 144.211 48.6635 141.235C49.8464 135.809 50.9058 130.274 52.929 125.048C54.2274 132.089 54.7688 139.425 57.5661 146.15C59.4242 150.616 64.7257 158.54 68.4218 150.895C71.1941 145.161 70.2429 138.579 70.5753 132.491C70.9436 125.745 73.047 119.238 73.7916 112.558C74.0802 109.97 73.8189 107.053 76.643 105.641C79.0675 104.429 82.6128 104.034 85.2598 103.357C93.1002 101.353 100.992 99.5105 108.795 97.3838C116.602 95.2556 124.301 92.7694 132.003 90.3429C139.37 88.0223 146.891 86.7029 154.348 84.7157C158.587 83.5856 162.775 82.4035 167.073 81.46C169.074 81.0212 171.098 80.6795 173.094 80.225C174.574 79.8885 176.523 78.6184 178.044 78.6409C179.609 78.6645 180.197 79.8848 181.993 79.9807C183.925 80.0835 185.891 79.6908 187.812 79.5551C192.494 79.2243 197.471 78.6897 202.143 79.2872C199.335 82.3537 195.543 84.4735 192.22 87.0138C188.387 89.9435 184.678 93.1069 181.404 96.5666C174.817 103.528 168.591 110.886 162.807 118.427C157.101 125.867 152.507 134.008 148.513 142.326C146.523 146.471 144.591 150.706 143.216 155.063C142.652 156.853 142.191 158.649 141.171 160.277C140.236 161.769 138.918 163.056 140.023 164.859C140.784 164.42 141.468 163.875 142.156 163.348C141.361 168.507 139.645 173.497 138.762 178.64C137.893 183.707 137.928 188.918 137.984 194.035C138.103 204.751 138.968 215.225 141.329 225.737C143.716 236.366 146.783 246.914 150.651 257.168C154.374 267.04 158.11 277.394 163.306 286.699C168.857 296.637 175.459 307.086 183.493 315.499C178.245 317.478 171.567 317.108 166.01 317.906C160.201 318.739 155.176 320.312 150.226 323.272C145.218 326.267 142.499 330.123 141.807 335.584C141.315 339.471 139.854 344.852 145.391 345.873C149.375 346.608 153.827 345.401 157.818 345.103C164.8 344.582 171.791 344.257 178.788 343.976C185.766 343.695 192.747 343.448 199.727 343.249C203.011 343.155 206.296 343.108 209.578 343C211.049 342.951 211.941 342.93 213.26 343.322C214.303 343.632 214.227 344.275 215.388 343.48C217.261 342.197 216.876 338.153 216.823 336.375C216.744 333.631 216.461 330.855 215.88 328.163C215.535 326.563 211.348 316.251 214.604 315.817C210.821 311.989 209.31 306.523 207.611 301.726C205.482 295.716 203.613 289.722 202.146 283.54C199.012 270.335 197.627 256.986 197.627 243.475C212.154 251.72 227.523 256.186 244.633 256.684C261.643 257.18 280.331 255.893 296.484 250.682C303.964 248.269 310.664 245.1 317.077 240.83C319.376 239.3 321.838 235.834 324.855 235.894C328.456 235.965 332.488 237.22 336.064 237.757C342.901 238.783 351.826 239.362 357.616 243.257C360.76 245.372 363.014 248.334 365.82 250.771C367.955 252.626 370.778 253.633 372.897 255.487C375.183 257.488 374.275 260.102 378.065 260.264C381.306 260.402 384.858 259.202 387.653 257.793C393.228 254.981 399.165 248.981 394.013 243.286Z" fill="black"/>
<path fill-rule="evenodd" clip-rule="evenodd" d="M340.425 109.572C348.584 114.909 357.942 118.554 366.469 123.361C368.603 124.564 375.252 127.061 375.187 129.293C375.15 130.598 373.152 132.234 372.277 133.138C370.778 134.687 369.368 136.252 367.985 137.891C361.653 145.394 355.691 152.969 348.829 160.096C347.796 161.168 344.684 166.286 343.679 163.744C343.224 162.591 343.599 161.296 342.412 160.222C341.801 159.668 339.44 159.363 340.128 158.176C340.586 158.365 341.045 158.556 341.504 158.745C341.148 157.796 341.174 156.757 340.64 155.86C340.308 155.303 339.66 155.039 339.435 154.411C339.124 153.544 339.651 152.537 339.563 151.643C339.476 150.752 338.974 149.91 338.675 149.069C336.899 144.085 336.262 139.061 335.353 133.918C334.454 128.83 333.053 123.901 332.503 118.756C331.922 113.322 331.209 107.899 330.259 102.508C331.955 102.727 333.259 104.424 334.458 105.383C336.344 106.891 338.391 108.241 340.425 109.572ZM334.028 162.183C333.639 161.902 333.335 161.556 333.115 161.146C337.114 159.322 334.701 162.434 334.028 162.183ZM331.597 158.293C329.854 158.735 328.601 158.825 327.257 158.164C327.13 158.102 327.277 157.619 327.047 157.52C326.846 157.434 326.539 157.54 326.367 157.46C325.782 157.185 324.757 157.786 324.657 156.737C326.882 156.11 329.07 154.953 331.418 154.758C334.683 154.487 334.532 157.547 331.597 158.293ZM323.959 152.243C321.581 152.756 319.622 153.952 317.095 153.639C314.723 153.347 312.661 152.214 310.79 150.909C315.471 149.688 320.38 149.468 325.057 148.288C326.58 147.904 328.581 146.89 330.222 147.299C332.045 147.753 332.16 149.325 332.707 150.756C329.789 151.24 326.848 151.622 323.959 152.243ZM309.084 146.171C306.799 146.674 304.464 147.773 302.553 145.876C302.245 145.57 301.975 145.876 302.011 144.933C302.049 143.938 303.03 143.298 303.873 142.947C305.855 142.124 308.633 142.656 310.738 142.535C314.097 142.343 317.514 141.7 320.836 141.206C323.136 140.863 325.511 140.103 327.862 140.253C329.676 140.369 331.866 141.793 329.221 142.832C326.813 143.779 323.201 143.634 320.592 144.043C316.734 144.649 312.891 145.334 309.084 146.171ZM306.852 136.272C307 136.411 307.148 136.55 307.296 136.689C307.272 136.684 308.172 136.012 308.411 135.993C309.569 135.9 310.735 135.974 311.895 135.913C314.568 135.774 317.262 135.346 319.888 134.873C322.026 134.489 324.205 133.825 326.406 133.992C328.312 134.135 328.512 134.495 328.637 136.189C323.772 136.189 318.761 136.094 313.98 137.042C310.867 137.659 307.437 139.497 305.878 136.184C306.203 136.214 306.527 136.243 306.852 136.272ZM309.894 129.102C311.1 129.948 314.389 128.541 315.834 128.401C317.404 128.248 318.882 128.089 320.403 127.729C321.752 127.409 326.216 125.812 327.251 127.339C328.837 129.679 322.413 130.108 321.395 130.224C317.124 130.71 312.692 131.141 308.536 132.172C308.989 131.149 309.441 130.126 309.894 129.102ZM315.753 121.156C316.064 122.237 325.724 118.252 325.899 121.148C326.035 123.37 316.343 124.478 314.6 124.283C315.008 123.259 316.094 122.343 315.753 121.156ZM318.996 114.359C319.201 112.177 319.519 112.19 321.418 111.985C322.867 111.828 324.858 111.046 324.481 113.423C324.159 115.459 318.789 116.56 318.996 114.359ZM322.448 106.854C322.905 105.683 323.934 107.259 323.955 107.854C324.013 109.439 322.708 109.096 321.452 109.096C321.802 108.356 322.134 107.608 322.448 106.854ZM338.346 98.0637C338.09 97.7796 336.652 97.6711 336.242 97.5332C335.236 97.1935 335.379 96.4696 334.091 97.1836C334.027 97.1238 334.149 96.587 334.079 96.5624C334.044 96.5498 333.142 96.2364 332.848 96.0634C332.141 95.6461 331.503 95.2378 330.853 94.7141C330.162 94.1579 329.47 93.3507 328.68 92.9077C328.347 92.7211 328.075 92.4564 327.674 92.3993C326.633 92.2515 326.931 92.9193 326.021 93.0519C325.46 93.1337 325.052 92.5309 324.319 92.7909C323.685 93.0152 323.317 93.8335 323.035 94.3204C322.009 96.0927 321.217 98.0003 320.212 99.7914C315.074 108.951 309.234 117.762 304.257 127.007C301.86 131.46 299.359 135.945 297.671 140.678C296.455 144.091 293.708 149.078 296.071 152.489C297.79 154.969 301.231 156.04 303.976 157.238C308.107 159.041 311.916 161.398 316.092 163.146C321.073 165.231 325.909 167.411 330.764 169.739C332.834 170.732 334.702 172.162 336.766 173.102C338.028 173.677 339.977 172.696 340.388 174.015C341.97 172.25 344.531 173.426 346.361 172.184C347.437 171.453 348.224 170.014 349.122 169.114C350.469 167.765 351.93 166.513 353.305 165.187C358.759 159.922 363.795 154.438 368.757 148.782C373.497 143.381 379.034 138.279 383.037 132.367C384.627 130.02 384.915 127.559 383.866 124.967C383.1 123.075 381.254 120.22 378.618 121.472C379.618 119.943 375.762 118.311 374.592 118.012C374.574 118.008 374.344 119.182 374.017 119.153C374.134 119.163 373.037 116.551 372.556 116.216C371.126 115.22 369.386 114.057 367.826 113.237C366.395 112.485 364.884 112.112 363.498 111.27C361.818 110.25 360.275 109.04 358.588 108.027C356.96 107.049 355.144 105.892 353.344 105.22C351.784 104.636 350.382 104.522 348.978 103.566C347.24 102.383 345.725 101.58 343.721 100.765C341.988 100.06 339.586 99.4444 338.346 98.0637Z" fill="black"/>
<path fill-rule="evenodd" clip-rule="evenodd" d="M101.731 239.722C102.05 239.033 102.368 238.344 102.686 237.655C103.08 238.856 103.191 239.454 101.731 239.722ZM102.155 242.906C101.465 243.02 101.737 241.025 101.737 240.678C102.929 241.3 101.942 242.045 102.155 242.906ZM101.079 237.152C101.667 236.832 102.256 236.512 102.845 236.192C102.025 237.59 102.346 236.717 102.685 237.651C102.066 237.814 101.465 237.623 101.079 237.152ZM97.5903 248.083C95.3839 255.454 88.3758 261.268 80.9738 264.279C76.7203 266.009 72.5385 266.442 67.9452 266.249C66.1737 266.175 64.0891 265.645 62.3842 265.744C61.0714 265.82 61.1306 265.872 60.0434 266.895C59.5624 266.08 59.9107 265.507 58.9459 265.032C57.7419 264.44 57.2421 265.13 56.6449 265.95C55.8633 265.204 55.5434 264.815 54.5307 264.372C54.5626 264.386 53.5613 264.351 53.6023 264.362C53.4212 264.311 52.3322 263.666 51.9913 263.549C50.592 263.065 48.9742 262.867 47.6831 262.173C46.5537 261.568 45.6236 259.868 44.3314 261.174C44.3302 258.991 41.1373 258.086 39.6407 256.943C37.3022 255.156 35.443 252.511 34.2772 249.953C33.0339 247.224 32.6189 244.609 32.0371 241.797C31.6307 239.832 28.9689 236.992 30.5673 235.01C30.9482 235.841 30.7694 236.692 31.4018 237.446C31.9711 236.436 32.2842 235.306 32.5415 234.2C32.6679 233.659 33.3999 232.07 33.3168 231.598C33.1477 230.632 31.8499 230.58 32.5694 229.396C34.062 230.892 35.2665 228.266 34.1388 227.219C33.5821 227.797 33.3777 228.454 33.121 229.17C31.6535 226.442 35.7151 227.32 34.8265 224.858C36.3088 224.595 37.161 224.251 37.7246 222.903C38.3513 221.402 37.8902 221.075 39.3134 220.083C39.8029 219.742 41.1874 219.252 41.4407 218.691C41.9308 217.608 40.6836 217.286 41.776 216.271C42.1448 216.867 43.5828 218.047 44.3701 216.924C44.5277 216.7 43.8657 216.542 44.3473 216.026C45.0606 215.263 45.8587 214.514 47.0649 214.674C46.1097 212.475 52.2133 212.301 53.7764 211.782C55.343 211.263 56.6722 210.922 58.3333 210.801C59.9927 210.681 60.0753 210.233 61.4802 209.313C61.5992 210.629 61.943 210.34 62.9591 210.572C63.2033 210.186 63.4538 210.143 63.71 210.442C63.965 210.665 64.2769 210.77 64.6447 210.758C65.2025 210.784 65.8355 210.717 66.4202 210.728C67.7926 210.753 69.2084 210.648 70.5547 210.674C70.9019 210.621 71.2264 210.51 71.5304 210.34C71.6573 210.561 71.7849 210.781 71.9112 211.002C72.6245 211.084 72.6797 211.907 73.5569 211.007C73.8165 212.151 74.5622 211.556 75.3501 211.866C76.0685 212.15 76.1829 212.603 76.8461 212.919C77.2821 213.244 77.7495 213.287 78.2493 213.049C78.7247 213.373 79.2074 213.688 79.6969 213.994C80.5992 214.463 81.6626 214.75 82.6132 215.121C83.2457 215.361 83.8741 215.611 84.4975 215.87C84.5163 216.563 84.8538 216.808 85.5096 216.604C86.1022 217.06 86.269 217.043 86.8439 217.82C88.1464 219.582 89.302 220.95 90.9471 222.525C98.0976 229.371 100.294 239.05 97.5903 248.083ZM99.7848 218.972C96.5566 214.992 91.9872 210.433 87.8811 207.919C85.7999 206.644 82.8785 204.356 80.3334 203.682C79.7299 203.522 79.1055 203.512 78.5123 203.344C78.0541 203.215 77.8047 202.782 77.2822 202.703C76.9167 202.649 76.8763 203.402 76.488 203.333C75.6763 203.187 75.1617 202.446 74.5884 201.982C73.3571 203.935 72.6888 200.65 70.8809 202.859C68.7291 199.752 63.6741 200.431 60.2381 200.588C59.2191 200.634 58.7404 200.968 57.8369 201.215C56.9962 201.445 56.913 201.386 55.9948 201.38C53.7081 201.364 51.6782 201.628 49.5645 202.553C46.0135 204.106 42.7539 206.526 39.3811 208.398C35.6115 210.49 32.2136 213.153 29.3298 216.213C18.9044 227.276 16.1168 243.425 24.4296 256.251C37.6335 276.621 71.6926 278.798 90.9921 264.977C105.903 254.297 111.577 233.51 99.7848 218.972Z" fill="black"/>
<path fill-rule="evenodd" clip-rule="evenodd" d="M263.212 161.648C262.841 162.462 259.381 162.188 259.305 161.229C259.192 159.794 263.856 160.234 263.212 161.648ZM266.888 161.116C268.849 161.263 272.071 162.489 273.961 161.748C276.845 160.617 273.816 158.881 272.269 158.362C270.694 157.834 268.349 158.114 267.539 156.598C266.93 155.458 268.435 152.275 266.568 152.787C264.609 153.324 265.179 157.883 262.104 156.346C260.638 155.613 261.236 151.146 258.78 153.428C258.107 154.052 258.049 155.199 257.158 155.664C256.25 156.14 255.11 155.644 254.151 155.686C251.612 155.795 250.803 157.983 253.376 158.85C254.328 159.172 257.918 159.564 255.743 160.997C254.373 161.9 251.329 160.005 250.153 161.577C248.535 163.735 252.867 163.784 254.031 164.43C256.003 165.523 254.374 168.078 254.531 169.897C254.772 172.676 256.525 172.095 257.162 169.743C257.703 167.747 257.033 164.875 260.3 165.668C265.62 166.959 257.342 173.179 261.239 174.77C263.724 175.785 264.075 170.3 264.268 169.355C264.983 165.869 267.11 166.682 270.332 166.789C274.096 166.914 275.004 164.35 271.018 163.616C269.746 163.381 267.997 163.678 266.893 162.932C266.239 162.491 265.341 161.001 266.888 161.116Z" fill="black"/>
<path fill-rule="evenodd" clip-rule="evenodd" d="M127.917 275.019C124.871 274.015 119.775 274.232 119.022 277.854C118.706 279.371 119.321 280.975 120.458 282.077C121.777 283.354 123.877 283.473 123.765 281.248C123.687 279.708 122.096 278.371 124.894 278.061C126.634 277.868 129.209 279.067 129.296 280.838C129.491 284.829 121.989 285.142 119.224 284.451C113.736 283.082 115.227 277.789 118.995 275.374C119.969 274.75 122.762 273.788 122.89 272.492C123.059 270.773 120.75 271.124 119.619 271.35C111.3 273.018 109.487 285.85 118.179 288.269C122.126 289.367 127.685 288.233 130.064 284.941C132.294 281.855 132.325 276.472 127.917 275.019Z" fill="black"/>
<path fill-rule="evenodd" clip-rule="evenodd" d="M17.6225 184.179C15.0222 185.332 12.4218 186.484 9.82201 187.637C8.96244 185.944 7.51027 181.317 5.33001 180.726C1.80062 179.769 4.04804 184.813 4.65715 185.966C5.15753 186.913 6.31824 188.381 6.03646 189.51C5.65847 191.031 3.32794 191.57 2.10802 192.355C-0.910748 194.298 -0.886844 198.377 3.48505 196.649C5.95904 195.67 9.0222 192.956 10.9184 196.037C11.7939 197.459 13.8683 205.401 16.0349 200.207C17.3755 196.991 10.923 193.65 14.104 190.93C15.1281 190.054 16.3269 189.98 17.3499 189.477C19.8204 188.261 18.4275 186.015 17.6225 184.179Z" fill="black"/>
<path fill-rule="evenodd" clip-rule="evenodd" d="M398.845 69.0986C397.295 68.5765 395.377 67.5569 393.654 67.9045C391.822 68.2735 391.085 69.9624 389.754 70.9778C386.134 73.7387 384.025 69.6238 382.036 67.3687C380.158 65.2395 377.866 64.7226 375.216 66.031C374.16 66.5526 369.711 68.9424 370.487 70.4735C371.045 71.5754 373.243 70.5862 373.992 70.3456C375.62 69.824 377.131 69.3675 378.796 70.1281C381.918 71.5539 382.728 75.4638 386.506 76.0734C390.412 76.704 390.54 73.2811 393.328 71.9926C395.196 71.1293 396.498 72.6578 398.301 72.3533C400.019 72.0634 400.814 69.7611 398.845 69.0986Z" fill="black"/>
<path fill-rule="evenodd" clip-rule="evenodd" d="M367.308 82.8936C368.69 83.1699 369.591 80.7025 370.456 80.0767C371.891 79.0393 374.378 78.8301 375.838 79.8743C378.691 81.9124 377.708 86.3124 381.769 87.4593C385.4 88.4847 387.11 84.082 390.165 82.9859C391.942 82.3485 393.892 81.9312 393.199 79.6442C392.72 78.0627 391.31 77.6565 389.776 78.264C387.14 79.3071 386.246 83.5567 383.121 83.6328C379.888 83.7114 379.537 79.4198 378.15 77.5506C376.034 74.7016 371.684 74.0134 369.212 76.7376C368.466 77.5595 364.677 82.3689 367.308 82.8936Z" fill="black"/>
<path fill-rule="evenodd" clip-rule="evenodd" d="M303.406 34.2436C305.328 35.4545 309.158 35.4126 310.928 33.9108C312.73 32.3827 310.325 32.1479 308.857 32.1946C307.728 32.2307 305.615 32.746 306.258 30.9507C306.829 29.3576 309.968 30.1686 310.229 28.4199C307.868 28.0299 305.266 28.1704 303.519 29.8797C302.256 31.1153 301.607 33.1098 303.406 34.2436Z" fill="black"/>
</svg>
